<?xml version="1.0" encoding="UTF-8"?>
<svg width="104px" height="51px" viewBox="0 0 104 51" version="1.1" xmlns="http://www.w3.org/2000/svg" xmlns:xlink="http://www.w3.org/1999/xlink">
    <title>Group 11</title>
    <g id="Page-1" stroke="none" stroke-width="1" fill="none" fill-rule="evenodd">
        <g id="Group-11">
            <rect id="Rectangle" fill="#C7C7C7" x="0" y="0" width="104" height="51"></rect>
            <g id="Group-10" transform="translate(34.000000, 7.000000)">
                <rect id="Rectangle" stroke="#615C5C" stroke-width="0.5" fill="#282727" x="0.968204489" y="1.1408686" width="33.6147132" height="38.6091314"></rect>
                <rect id="Rectangle" stroke="#050505" stroke-width="0.9" fill="#616161" x="0.45" y="0.45" width="35.1" height="11.0376392"></rect>
                <rect id="Rectangle" fill="#E15252" x="2.51371571" y="5.34521158" width="3.59102244" height="1.78173719" rx="0.585"></rect>
                <rect id="Rectangle" fill="#69A4FF" x="7.09226933" y="5.34521158" width="3.59102244" height="1.78173719" rx="0.585"></rect>
                <rect id="Rectangle" fill="#78A045" x="11.6708229" y="5.34521158" width="3.59102244" height="1.78173719" rx="0.585"></rect>
                <ellipse id="Oval" fill="#B6FF00" cx="33.0822943" cy="6.28062361" rx="1.12219451" ry="1.11358575"></ellipse>
                <rect id="Rectangle" fill="#FFFFFF" x="17.9551122" y="3.56347439" width="12.2992519" height="1"></rect>
                <rect id="Rectangle-Copy-3" fill="#FFFFFF" x="18.0448878" y="5.34521158" width="12.2992519" height="1"></rect>
                <rect id="Rectangle-Copy-4" fill="#FFFFFF" x="18.0448878" y="7.12694878" width="12.2992519" height="1"></rect>
                <rect id="Rectangle-Copy-5" fill="#FFFFFF" x="18.0448878" y="8.90868597" width="12.2992519" height="1"></rect>
                <rect id="Rectangle" stroke="#050505" stroke-width="0.9" fill="#616161" x="0.45" y="13.9021158" width="35.1" height="11.0376392"></rect>
                <rect id="Rectangle" fill="#1EAD63" x="2.51371571" y="18.7973274" width="3.59102244" height="1.78173719" rx="0.585"></rect>
                <rect id="Rectangle" fill="#1B273A" x="7.09226933" y="18.7973274" width="3.59102244" height="1.78173719" rx="0.585"></rect>
                <rect id="Rectangle" fill="#78A045" x="11.6708229" y="18.7973274" width="3.59102244" height="1.78173719" rx="0.585"></rect>
                <ellipse id="Oval" fill="#CAD5AE" cx="33.0822943" cy="19.7327394" rx="1.12219451" ry="1.11358575"></ellipse>
                <rect id="Rectangle" fill="#FFFFFF" x="17.9551122" y="17.0155902" width="12.2992519" height="1"></rect>
                <rect id="Rectangle-Copy-3" fill="#FFFFFF" x="18.0448878" y="18.7973274" width="12.2992519" height="1"></rect>
                <rect id="Rectangle-Copy-4" fill="#FFFFFF" x="18.0448878" y="20.5790646" width="12.2992519" height="1"></rect>
                <rect id="Rectangle-Copy-5" fill="#FFFFFF" x="18.0448878" y="22.3608018" width="12.2992519" height="1"></rect>
                <rect id="Rectangle" stroke="#050505" stroke-width="0.9" fill="#616161" x="0.45" y="27.1760579" width="35.1" height="11.0376392"></rect>
                <rect id="Rectangle" fill="#E152C5" x="2.51371571" y="32.0712695" width="3.59102244" height="1.78173719" rx="0.585"></rect>
                <rect id="Rectangle" fill="#69FFB6" x="7.09226933" y="32.0712695" width="3.59102244" height="1.78173719" rx="0.585"></rect>
                <rect id="Rectangle" fill="#C94E2A" x="11.6708229" y="32.0712695" width="3.59102244" height="1.78173719" rx="0.585"></rect>
                <ellipse id="Oval" fill="#B6FF00" cx="33.0822943" cy="33.0066815" rx="1.12219451" ry="1.11358575"></ellipse>
                <rect id="Rectangle" fill="#FFFFFF" x="17.9551122" y="30.2895323" width="12.2992519" height="1"></rect>
                <rect id="Rectangle-Copy-3" fill="#FFFFFF" x="18.0448878" y="32.0712695" width="12.2992519" height="1"></rect>
                <rect id="Rectangle-Copy-4" fill="#FFFFFF" x="18.0448878" y="33.8530067" width="12.2992519" height="1"></rect>
                <rect id="Rectangle-Copy-5" fill="#FFFFFF" x="18.0448878" y="35.6347439" width="12.2992519" height="1"></rect>
            </g>
        </g>
    </g>
</svg>